<?xml version="1.0" encoding="utf-8"?>
<!-- Generator: Adobe Illustrator 21.1.0, SVG Export Plug-In . SVG Version: 6.00 Build 0)  -->
<svg version="1.1" id="Capa_1" xmlns="http://www.w3.org/2000/svg" xmlns:xlink="http://www.w3.org/1999/xlink" x="0px" y="0px"
	 viewBox="0 0 651.8 245" style="enable-background:new 0 0 651.8 245;" xml:space="preserve">
<style type="text/css">
	.st0{fill:#383938;}
	.st1{fill:#DD0031;}
</style>
<g>
	<g>
		<g>
			<g>
				<polygon class="st0" points="256.7,127 212.2,127 212.2,86.9 188.7,86.9 188.7,104.4 188.7,190.2 212.2,190.2 212.2,148.7 
					256.7,148.7 256.7,190.2 280.3,190.2 280.3,86.9 256.7,86.9 				"/>
				<path class="st0" d="M568.3,170.4c-4.9,1.6-9.6,2.6-14,3.1c-2.1,0.2-4.3,0.3-6.7,0.3c-5.7,0-10.1-1.2-13.2-3.6
					c-3.1-2.4-4.6-6.8-4.6-13.1l52.5-3.1c0.1-0.6,0.3-2.2,0.5-4.7c0.2-2.5,0.3-5.1,0.3-8c0-2.4-0.1-4.1-0.2-5.4
					c-0.5-10.3-4.1-17.9-10.6-22.8c-6.5-4.8-15.3-7.3-26.2-7.3c-9.7,0-17.4,1.5-23.2,4.5c-5.8,3-10,7.6-12.6,13.6
					c-2.6,6.1-3.9,13.9-3.9,23.4c0,8.6,0.9,15.9,2.7,21.9c-1.1,0.8-2.6,1.6-4.6,2.4c-2.5,1.1-4.9,1.6-7.1,1.6
					c-2.1,0-3.7-0.7-4.7-2.2c-1.1-1.5-1.8-3.7-2.2-6.5c-0.4-2.9-0.6-6.7-0.6-11.4v-0.6l-0.1-27.7h15.2v-16.8H490V86.9h-22.8v21.2
					h-8.8V125h8.8l0.1,35.2v2.2c0,3.1,0.2,5.9,0.7,8.6c-0.6,0.4-1.2,0.8-1.9,1.2c-1.7,0.9-3.6,1.4-5.7,1.4c-2.1,0-3.7-0.6-4.7-1.8
					c-1-1.2-1.8-3.1-2.1-5.7c-0.4-2.6-0.6-6.2-0.6-10.9v-15.5c0-11.1-2.1-19.5-6.3-25.2c-4.2-5.7-11.2-8.5-20.9-8.5
					c-4,0-7.7,0.8-11.3,2.4c-3.6,1.6-6.6,3.4-9.1,5.3c-2.5,1.9-3.7,3-3.7,3.4v-8.8h-22.6v63.4c-0.2,0.1-0.4,0.2-0.7,0.3
					c-2.5,1.1-4.9,1.6-7.1,1.6c-2.1,0-3.8-0.7-4.9-2.2c-1.1-1.4-1.8-3.5-2.2-6.3c-0.4-2.8-0.6-6.5-0.6-11.4l-0.1-45.5h-22.6l0.1,48
					c0,4.4,0.1,7.8,0.2,10c-1.9,1.7-3.4,2.9-4.4,3.7c-1,0.8-2.5,1.6-4.5,2.5c-2,0.9-4.2,1.3-6.5,1.3c-3.4,0-6-0.8-7.9-2.3
					c-1.9-1.5-3.3-3.8-4.1-6.9c-0.8-3.1-1.2-7-1.2-12v-44.3h-22.8v50.4c0,11.1,2.1,19.5,6.3,25.2c4.2,5.7,11.2,8.5,20.9,8.5
					c5,0,9.4-0.8,13.4-2.5c4-1.7,7.1-3.5,9.5-5.4c2.4-1.9,3.9-3.4,4.7-4.4c1.7,3.2,3.8,5.7,6.6,7.6c2.7,1.9,5.9,3.1,9.5,3.7
					c1.4,0.3,2.9,0.5,4.6,0.5c1.1,0,2.3-0.1,3.6-0.2c3.7-0.6,7.1-1.8,10.3-3.6v2.3h22.6v-58.3c0-0.2,0.7-0.9,2.2-2.2
					c1.5-1.3,3.4-2.5,5.7-3.5c2.3-1.1,4.8-1.6,7.4-1.6c4.9,0,8.4,1.7,10.3,5.1c2,3.4,3,8.7,3,16v16.6c0,8.8,1.6,16,4.9,21.6
					c3.2,5.5,9.2,8.3,17.9,8.3c3.9,0,7.4-0.9,10.6-2.6c3.2-1.7,5.9-3.6,8-5.7c0.2-0.2,0.4-0.4,0.7-0.6c0.1,0.1,0.2,0.3,0.3,0.4
					c3.5,5.6,9.6,8.4,18.3,8.4c4.4,0,8.8-1.1,13.1-3.4c4.3-2.2,7.8-5,10.7-8.4c2.2,2.8,4.9,5.2,8.1,7c5.8,3.2,13.4,4.8,23.1,4.8
					c5.2,0,10.5-0.7,15.7-2.1c5.2-1.4,9.8-3,13.8-4.9c4-1.9,6.8-3.6,8.5-5.1l-3.4-13.9C577.3,167.4,573.2,168.8,568.3,170.4z
					 M534.4,127.8c2.7-2.7,6.5-4,11.5-4c10.1,0,15.1,4.3,15.1,12.8c0,1,0,1.7-0.1,2.2l-31.1,1.2
					C530.2,134.5,531.7,130.4,534.4,127.8z"/>
				<path class="st0" d="M644.6,106.9c-2.2-0.6-4.1-1-6.6-1c-5.5,0-10.4,1.2-14.6,3.6c-4.2,2.4-7.5,5.5-10,9.2v-10.6h-22.6v82h22.6
					v-45.8c0.1-3.2,0.6-8.6,3-12.5c2-2.6,4.6-4.8,7.7-6.4c3.2-1.6,6.4-2.4,9.6-2.4c2.5,0,4.7,0.2,6.4,0.7c1.8,0.5,2.8,1,4.4,2
					C644.6,125.8,644.6,108,644.6,106.9z"/>
			</g>
			<g>
				<path class="st0" d="M440.6,230.1h-14.6v-27.6h14v2.9h-10.8v9.2h10v2.9h-10v9.7h11.4V230.1z"/>
				<path class="st0" d="M444.3,229.4V226c1.7,1.3,3.6,1.9,5.7,1.9c2.8,0,4.2-0.9,4.2-2.8c0-0.5-0.1-1-0.4-1.3c-0.2-0.4-0.6-0.7-1-1
					c-0.4-0.3-0.9-0.5-1.4-0.8c-0.5-0.2-1.1-0.5-1.8-0.7c-0.9-0.3-1.6-0.7-2.3-1c-0.7-0.4-1.2-0.8-1.7-1.2c-0.4-0.4-0.8-0.9-1-1.5
					c-0.2-0.6-0.3-1.2-0.3-2c0-0.9,0.2-1.7,0.6-2.5c0.4-0.7,1-1.3,1.7-1.8c0.7-0.5,1.5-0.8,2.4-1.1c0.9-0.2,1.8-0.4,2.8-0.4
					c1.7,0,3.2,0.3,4.6,0.9v3.2c-1.5-1-3.1-1.4-5-1.4c-0.6,0-1.1,0.1-1.6,0.2c-0.5,0.1-0.9,0.3-1.2,0.6c-0.3,0.2-0.6,0.5-0.8,0.9
					c-0.2,0.3-0.3,0.7-0.3,1.1c0,0.5,0.1,0.9,0.3,1.3c0.2,0.3,0.5,0.7,0.8,0.9c0.4,0.3,0.8,0.5,1.3,0.7c0.5,0.2,1.1,0.5,1.8,0.7
					c0.9,0.3,1.7,0.7,2.4,1c0.7,0.4,1.3,0.8,1.8,1.2c0.5,0.4,0.9,1,1.1,1.5c0.3,0.6,0.4,1.3,0.4,2.1c0,1-0.2,1.8-0.6,2.5
					c-0.4,0.7-1,1.3-1.7,1.8c-0.7,0.5-1.5,0.8-2.5,1.1c-0.9,0.2-1.9,0.3-2.9,0.3C447.5,230.5,445.7,230.1,444.3,229.4z"/>
				<path class="st0" d="M471.3,229.9c-0.7,0.4-1.7,0.6-2.9,0.6c-3.5,0-5.2-1.9-5.2-5.8V213h-3.4v-2.7h3.4v-4.8l3.2-1v5.8h5v2.7h-5
					v11.1c0,1.3,0.2,2.3,0.7,2.8c0.4,0.6,1.2,0.8,2.2,0.8c0.8,0,1.5-0.2,2.1-0.7V229.9z"/>
				<path class="st0" d="M483.8,230.5c-2.9,0-5.2-0.9-7-2.8c-1.7-1.8-2.6-4.3-2.6-7.3c0-3.3,0.9-5.9,2.7-7.8
					c1.8-1.9,4.3-2.8,7.3-2.8c2.9,0,5.2,0.9,6.9,2.7c1.7,1.8,2.5,4.3,2.5,7.5c0,3.1-0.9,5.7-2.7,7.6
					C489.2,229.6,486.8,230.5,483.8,230.5z M484,212.5c-2,0-3.6,0.7-4.8,2.1c-1.2,1.4-1.8,3.3-1.8,5.7c0,2.3,0.6,4.2,1.8,5.5
					c1.2,1.3,2.8,2,4.8,2c2,0,3.6-0.7,4.7-2c1.1-1.3,1.6-3.2,1.6-5.6c0-2.5-0.5-4.4-1.6-5.7C487.7,213.2,486.1,212.5,484,212.5z"/>
				<path class="st0" d="M514.4,210.3l-9.1,22.9c-1.6,4.1-3.9,6.1-6.8,6.1c-0.8,0-1.5-0.1-2.1-0.3v-2.8c0.7,0.2,1.3,0.3,1.9,0.3
					c1.6,0,2.8-1,3.6-2.9l1.6-3.7l-7.7-19.7h3.5l5.3,15.2c0.1,0.2,0.2,0.7,0.4,1.5h0.1c0.1-0.3,0.2-0.8,0.4-1.5l5.6-15.2H514.4z"/>
				<path class="st0" d="M527.4,229.4V226c1.7,1.3,3.6,1.9,5.7,1.9c2.8,0,4.2-0.9,4.2-2.8c0-0.5-0.1-1-0.4-1.3c-0.2-0.4-0.6-0.7-1-1
					c-0.4-0.3-0.9-0.5-1.4-0.8c-0.5-0.2-1.1-0.5-1.8-0.7c-0.9-0.3-1.6-0.7-2.3-1c-0.7-0.4-1.2-0.8-1.7-1.2c-0.4-0.4-0.8-0.9-1-1.5
					c-0.2-0.6-0.3-1.2-0.3-2c0-0.9,0.2-1.7,0.6-2.5c0.4-0.7,1-1.3,1.7-1.8c0.7-0.5,1.5-0.8,2.4-1.1c0.9-0.2,1.8-0.4,2.8-0.4
					c1.7,0,3.2,0.3,4.6,0.9v3.2c-1.5-1-3.1-1.4-5-1.4c-0.6,0-1.1,0.1-1.6,0.2c-0.5,0.1-0.9,0.3-1.2,0.6c-0.3,0.2-0.6,0.5-0.8,0.9
					c-0.2,0.3-0.3,0.7-0.3,1.1c0,0.5,0.1,0.9,0.3,1.3c0.2,0.3,0.5,0.7,0.8,0.9c0.4,0.3,0.8,0.5,1.3,0.7c0.5,0.2,1.1,0.5,1.8,0.7
					c0.9,0.3,1.7,0.7,2.4,1c0.7,0.4,1.3,0.8,1.8,1.2c0.5,0.4,0.9,1,1.1,1.5c0.3,0.6,0.4,1.3,0.4,2.1c0,1-0.2,1.8-0.6,2.5
					c-0.4,0.7-1,1.3-1.7,1.8c-0.7,0.5-1.5,0.8-2.5,1.1c-0.9,0.2-1.9,0.3-2.9,0.3C530.6,230.5,528.9,230.1,527.4,229.4z"/>
				<path class="st0" d="M561.2,221h-13.9c0.1,2.2,0.6,3.9,1.8,5.1c1.1,1.2,2.7,1.8,4.7,1.8c2.2,0,4.3-0.7,6.1-2.2v3
					c-1.7,1.3-4,1.9-6.9,1.9c-2.8,0-5-0.9-6.6-2.7c-1.6-1.8-2.4-4.3-2.4-7.6c0-3.1,0.9-5.6,2.6-7.5c1.7-1.9,3.9-2.9,6.5-2.9
					c2.6,0,4.6,0.8,6,2.5c1.4,1.7,2.1,4,2.1,7V221z M557.9,218.3c0-1.8-0.5-3.2-1.3-4.3c-0.9-1-2.1-1.5-3.6-1.5
					c-1.5,0-2.8,0.5-3.8,1.6c-1,1.1-1.7,2.5-1.9,4.2H557.9z"/>
				<path class="st0" d="M582.8,228.5c0,7.2-3.5,10.9-10.4,10.9c-2.4,0-4.6-0.5-6.4-1.4v-3.2c2.2,1.2,4.3,1.8,6.4,1.8
					c4.9,0,7.3-2.6,7.3-7.7v-2.2h-0.1c-1.5,2.5-3.8,3.8-6.8,3.8c-2.5,0-4.4-0.9-5.9-2.6c-1.5-1.8-2.2-4.1-2.2-7.1c0-3.4,0.8-6,2.4-8
					c1.6-2,3.8-3,6.6-3c2.7,0,4.6,1.1,5.9,3.2h0.1v-2.7h3.2V228.5z M579.6,221.1v-2.9c0-1.6-0.5-2.9-1.6-4c-1.1-1.1-2.4-1.7-4-1.7
					c-2,0-3.5,0.7-4.6,2.1c-1.1,1.4-1.7,3.4-1.7,6c0,2.2,0.5,4,1.6,5.3c1.1,1.3,2.5,2,4.2,2c1.8,0,3.2-0.6,4.3-1.9
					C579.1,224.7,579.6,223.1,579.6,221.1z"/>
				<path class="st0" d="M605.1,230.1H602v-3.1h-0.1c-1.3,2.4-3.3,3.6-6.1,3.6c-4.7,0-7.1-2.8-7.1-8.4v-11.8h3.1v11.3
					c0,4.2,1.6,6.2,4.8,6.2c1.5,0,2.8-0.6,3.8-1.7c1-1.1,1.5-2.6,1.5-4.5v-11.4h3.2V230.1z"/>
				<path class="st0" d="M621.8,213.5c-0.6-0.4-1.3-0.6-2.4-0.6c-1.3,0-2.5,0.6-3.4,1.9c-0.9,1.3-1.4,3-1.4,5.2v10.1h-3.2v-19.7h3.2
					v4.1h0.1c0.4-1.4,1.1-2.5,2.1-3.2c0.9-0.8,2-1.2,3.1-1.2c0.8,0,1.5,0.1,1.9,0.3V213.5z"/>
				<path class="st0" d="M633.5,230.5c-2.9,0-5.2-0.9-7-2.8c-1.7-1.8-2.6-4.3-2.6-7.3c0-3.3,0.9-5.9,2.7-7.8
					c1.8-1.9,4.3-2.8,7.3-2.8c2.9,0,5.2,0.9,6.9,2.7c1.6,1.8,2.5,4.3,2.5,7.5c0,3.1-0.9,5.7-2.7,7.6
					C638.9,229.6,636.5,230.5,633.5,230.5z M633.7,212.5c-2,0-3.6,0.7-4.8,2.1c-1.2,1.4-1.8,3.3-1.8,5.7c0,2.3,0.6,4.2,1.8,5.5
					c1.2,1.3,2.8,2,4.8,2c2,0,3.6-0.7,4.7-2c1.1-1.3,1.6-3.2,1.6-5.6c0-2.5-0.6-4.4-1.6-5.7C637.3,213.2,635.8,212.5,633.7,212.5z"
					/>
			</g>
		</g>
	</g>
	<g>
		<g>
			<path class="st1" d="M165.5,69.4c-3.6-14.6-11.2-28.4-22.6-39.8c-33.5-33.5-87.7-33.5-121.2,0C15.9,35.4,11,41.9,7.2,48.9
				C22.8,33.7,44,24.4,67.5,24.4c24.3,0,46.7,10.5,62.4,26.6c-1.6,3.8-2.6,5.9-4.4,9.5c10.2,6,16.5,11.3,18.7,13.6
				c0.2,0.8,0.4,1.7,0.7,2.5c1.8,7.4,2.7,15,2.5,22.6c0,0.7,0,1.4-0.1,2.1v0.1c-0.1,2.3-0.3,4.6-0.6,6.9c0,0-3.3-9.7-4.3-10.6
				C130.8,89.7,116.8,85,101.8,85C62.1,85,30,117.2,30,156.8c0,1.4,0.1,2.7,0.1,4.1c13.2,14.9,45.5,50.4,52.2,50.4
				c8.5,0,57.5-56.4,57.5-56.4c4.5-4.5,11.5-13.5,14.7-18.7c4.5-7,7.8-14.4,10-22.1c2.1-7.2,3.2-14.7,3.4-22.1
				C168.1,84.3,167.3,76.7,165.5,69.4z"/>
			<polygon class="st1" points="116.8,59.5 90.4,49.5 95.5,64.3 			"/>
		</g>
	</g>
</g>
</svg>
