<svg xmlns="http://www.w3.org/2000/svg" width="266.339" height="61.366" viewBox="0 0 266.339 61.366"><g id="Grupo_97" data-name="Grupo 97" transform="translate(265.263 1196.328)"><g id="Grupo_87" data-name="Grupo 87"><g id="Grupo_86" data-name="Grupo 86"><g id="Grupo_65" data-name="Grupo 65" transform="translate(-534 229.673)"><path id="Trazado_33" data-name="Trazado 33" d="M0,19.046V26.8H11.633V57.276h8.411V26.8H31.676V19.046Z" transform="translate(268.737 -1433.479)" fill="#021521"></path><path id="Trazado_34" data-name="Trazado 34" d="M56.519,37.846v-.109c0-10.868,8.575-19.77,20.372-19.77s20.261,8.793,20.261,19.66v.109c0,10.869-8.574,19.77-20.37,19.77s-20.262-8.793-20.262-19.66m31.84,0v-.109c0-6.553-4.806-12.015-11.578-12.015S65.312,31.074,65.312,37.627v.109c0,6.554,4.807,12.015,11.579,12.015S88.359,44.4,88.359,37.846" transform="translate(246.544 -1433.055)" fill="#021521"></path><path id="Trazado_35" data-name="Trazado 35" d="M136.66,19.046h17.476c4.861,0,8.629,1.365,11.141,3.877a12,12,0,0,1,3.277,8.739v.109a11.872,11.872,0,0,1-8.192,11.851L169.7,57.276h-9.831l-8.192-12.234h-6.609V57.276H136.66Zm16.93,18.568c4.1,0,6.445-2.185,6.445-5.407V32.1c0-3.6-2.513-5.461-6.609-5.461h-8.356V37.614Z" transform="translate(215.077 -1433.479)" fill="#021521"></path><path id="Trazado_36" data-name="Trazado 36" d="M199.69,51.352l4.97-5.953c3.441,2.84,7.045,4.643,11.415,4.643,3.441,0,5.516-1.365,5.516-3.6v-.109c0-2.13-1.311-3.222-7.7-4.861-7.7-1.966-12.671-4.1-12.671-11.687V29.67c0-6.936,5.571-11.523,13.381-11.523a22.127,22.127,0,0,1,14.2,4.861l-4.369,6.335c-3.387-2.349-6.718-3.769-9.94-3.769s-4.915,1.475-4.915,3.331v.109c0,2.513,1.638,3.331,8.247,5.025,7.755,2.021,12.125,4.806,12.125,11.469v.109c0,7.591-5.789,11.851-14.036,11.851a24.327,24.327,0,0,1-16.22-6.117" transform="translate(190.328 -1433.126)" fill="#021521"></path><path id="Trazado_37" data-name="Trazado 37" d="M278.441,19.046h-7.755l-16.268,38.23h8.569l3.384-8.3,3-7.428,5.079-12.4,5.079,12.4,3,7.428,3.384,8.3h8.788Z" transform="translate(168.839 -1433.479)" fill="#021521"></path><path id="Trazado_38" data-name="Trazado 38" d="M352.936,38.371c.456-.278,1.005-.606,4.337-2.426,5.469-3.019,8.547-4.867,9.923-5.987a9.032,9.032,0,0,0,1.541-1.647,12.2,12.2,0,0,0,1.5-11.835l-.033-.063-.888-1.7a10.446,10.446,0,0,0-3.505-3.413,16.219,16.219,0,0,0-7.42-2.248c-.493-.023-1.555.012-2.063.037a15.024,15.024,0,0,0-3.21.676,12,12,0,0,0-1.306.643,16.259,16.259,0,0,0-2.511,1.552l-.012.009a12.512,12.512,0,0,0-1.94,1.74,30.533,30.533,0,0,0-6.681,11.929,30.415,30.415,0,0,1,5.591-4.561c.612-.36,2.766-1.526,3.428-1.791a17.942,17.942,0,0,1,5.162-1.537,4.52,4.52,0,0,1,4.17,1.544,4.7,4.7,0,0,1,.737,3.939,4.064,4.064,0,0,1-1.55,2.091,88.462,88.462,0,0,1-7.571,5.278c-1.35.865-1.679,1.077-2.227,1.484a26.776,26.776,0,0,0-4.64,4.146l-.052.06a10.026,10.026,0,0,0-1.469,10.755,30.575,30.575,0,0,0,4.307,6.8,19.393,19.393,0,0,1-.29-3.185,13.782,13.782,0,0,1,.075-2,13.18,13.18,0,0,1,6.593-10.292" transform="translate(134.971 -1429.553)" fill="#c70012"></path><path id="Trazado_39" data-name="Trazado 39" d="M408.689,17.173c.005.711-.062,3.158-.163,3.864a17.923,17.923,0,0,1-1.251,5.24,4.518,4.518,0,0,1-3.422,2.839,4.7,4.7,0,0,1-3.78-1.331,4.059,4.059,0,0,1-1.036-2.387,88.538,88.538,0,0,1-.785-9.2c-.075-1.6-.094-1.993-.171-2.671a26.8,26.8,0,0,0-1.271-6.09l-.031-.091A10.888,10.888,0,0,0,387.309.08Q386.213,0,385.1,0a30.714,30.714,0,0,0-6.062.6c.252.1.529.21.756.3a21.235,21.235,0,0,1,3.276,1.487,13.789,13.789,0,0,1,1.7,1.066,13.179,13.179,0,0,1,5.616,10.855c.013.533.022,1.173-.067,4.969-.121,6.245-.059,9.835.223,11.587a9.022,9.022,0,0,0,.655,2.159,12.2,12.2,0,0,0,9.5,7.218l1.478.063,1.013-.011a10.5,10.5,0,0,0,4.2-1.3,16.227,16.227,0,0,0,5.657-5.3c.266-.415.767-1.353,1-1.805a13.614,13.614,0,0,0,1.116-4.57l0-.035a15.513,15.513,0,0,0-.522-4.695,30.545,30.545,0,0,0-7.2-12.892,30.454,30.454,0,0,1,1.258,7.477" transform="translate(119.908 -1426)" fill="#c70012"></path><path id="Trazado_40" data-name="Trazado 40" d="M388.556,66.347c-.456-.276-1-.614-4.149-2.736-5.2-3.469-8.252-5.352-9.879-6.06a9.026,9.026,0,0,0-2.171-.612,12.2,12.2,0,0,0-11.2,4.108l-.041.058-1.1,1.569a10.446,10.446,0,0,0-1.419,4.682,16.227,16.227,0,0,0,1.416,7.623c.206.448.726,1.376.981,1.814a12.916,12.916,0,0,0,3.247,3.4,21.019,21.019,0,0,0,2.534,1.517l.013.007a12.487,12.487,0,0,0,2.437.923,30.534,30.534,0,0,0,13.665.448,30.4,30.4,0,0,1-6.621-2.867c-.6-.378-2.627-1.755-3.167-2.22a17.929,17.929,0,0,1-3.738-3.878,4.521,4.521,0,0,1-.547-4.413,4.7,4.7,0,0,1,3.159-2.465,4.062,4.062,0,0,1,2.57.414,88.7,88.7,0,0,1,8.168,4.3c1.388.8,1.729,1,2.342,1.295a26.768,26.768,0,0,0,5.815,2.214l.078.019a10.024,10.024,0,0,0,10.226-3.64,30.576,30.576,0,0,0,4.057-6.951,19.449,19.449,0,0,1-2.695,1.721,13.788,13.788,0,0,1-1.812.853,13.18,13.18,0,0,1-12.17-1.122" transform="translate(127.947 -1448.294)" fill="#c70012"></path></g></g></g></g></svg>